<svg id="圖層_1" data-name="圖層 1" xmlns="http://www.w3.org/2000/svg" viewBox="0 0 48.34 70.59"><path d="M25.39,2.2c.77,0,1.32,0,1.88,0,.27,0,.27,0,.15-.22A.85.85,0,0,1,27.7.84,4.31,4.31,0,0,1,29.8.11a19.25,19.25,0,0,1,9.82,1.61,17.88,17.88,0,0,1,5.65,3.77,16.13,16.13,0,0,1,2.95,4,.51.51,0,0,1,.05.32,6,6,0,0,0,0,2.34,2.28,2.28,0,0,1,0,.45V62.54c0,.36,0,.37-.35.42a8.34,8.34,0,0,1-3.78-.27,6.34,6.34,0,0,0-1.37-.17,4.94,4.94,0,0,0-3.36.75,17.26,17.26,0,0,1-3,1.5c-3.47,1.52-7,3-10.59,4.14a35.44,35.44,0,0,1-5.9,1.5,11.38,11.38,0,0,1-3.59.07,5.94,5.94,0,0,1-3.6-2.11,22.64,22.64,0,0,0-2.06-2.21,8.41,8.41,0,0,0-4.29-2,6.61,6.61,0,0,1-4.12-2.1A8.44,8.44,0,0,1,.54,58.66,17.45,17.45,0,0,1,0,54.72a25.66,25.66,0,0,1,.07-3,39.2,39.2,0,0,1,.72-4.94,57.84,57.84,0,0,1,3.42-11c.4-.94.87-1.85,1.31-2.77A19.76,19.76,0,0,0,6.93,28.6c.46-2.07.79-4.18,1.18-6.27a55.17,55.17,0,0,1,2.1-8.47,22.21,22.21,0,0,1,3.08-6,13.67,13.67,0,0,1,9-5.4A17.22,17.22,0,0,1,25.39,2.2Z"/></svg>