<?xml version="1.0" encoding="utf-8"?>
<!-- Generator: Adobe Illustrator 24.2.0, SVG Export Plug-In . SVG Version: 6.00 Build 0)  -->
<svg version="1.1" id="圖層_1" xmlns="http://www.w3.org/2000/svg" xmlns:xlink="http://www.w3.org/1999/xlink" x="0px" y="0px"
	 viewBox="0 0 162.92 108.07" style="enable-background:new 0 0 162.92 108.07;" xml:space="preserve">
<path d="M0,103.52c0-30.89,0-61.77,0-92.66c0.05-0.16,0.1-0.32,0.15-0.49c1.81-6.04,6.96-9.44,13.18-9.35
	c2.15,0.03,4.24,0.42,6.29,1.05c0.28,0.09,0.5,0.06,0.74-0.12c1.01-0.73,2.14-1.19,3.35-1.49c2.58-0.65,5.19-0.53,7.79-0.2
	c2.99,0.37,5.91,1.11,8.8,1.96c5.52,1.62,10.85,3.72,16.14,5.96c7.83,3.3,15.51,6.95,23.27,10.4c4.51,2,9.03,3.97,13.72,5.52
	c1.65,0.54,3.32,1.05,5.06,1.23c2.58,0.27,5.17,0.53,7.75,0.86c4.5,0.57,8.98,1.27,13.41,2.22c5.82,1.24,11.52,2.85,17.03,5.11
	c3.86,1.58,7.54,3.56,11.34,5.27c2.6,1.17,5.29,2.08,8.15,2.35c0.94,0.09,1.76,0.37,2.54,0.92c1.13,0.8,2.29,1.56,3.38,2.42
	c0.27,0.21,0.55,0.4,0.82,0.6c0,16.63,0,33.26,0,49.9c-0.06,0.08-0.14,0.15-0.19,0.23c-2.13,3.17-4.98,5.53-8.35,7.28
	c-4.82,2.49-10.03,3.58-15.38,4.15c-1.79,0.19-3.57,0.29-5.37,0.36c-3.44,0.13-6.87,0.11-10.3-0.05c-2.62-0.12-5.25-0.3-7.86-0.56
	c-2.12-0.21-4.25-0.39-6.37-0.63c-2.68-0.3-5.36-0.64-8.03-0.98c-3.1-0.4-6.19-0.79-9.28-1.23c-4.18-0.59-8.37-1.13-12.56-1.65
	c-3.2-0.39-6.4-0.72-9.61-0.97c-2.9-0.23-5.81-0.36-8.72-0.38c-2.5-0.01-5,0.13-7.48,0.5c-2.82,0.42-5.53,1.16-8,2.63
	c-1.69,1.01-3.51,1.75-5.39,2.37c-4.02,1.31-8.17,1.86-12.38,2.02c-3.84,0.15-7.66-0.1-11.46-0.61c-3.66-0.49-7.27-1.23-10.83-2.2
	C3.56,104.73,1.75,104.21,0,103.52z"/>
</svg>
