<?xml version="1.0" encoding="utf-8"?>
<!-- Generator: Adobe Illustrator 24.2.0, SVG Export Plug-In . SVG Version: 6.00 Build 0)  -->
<svg version="1.1" id="圖層_1" xmlns="http://www.w3.org/2000/svg" xmlns:xlink="http://www.w3.org/1999/xlink" x="0px" y="0px"
	 viewBox="0 0 170.2 224" style="enable-background:new 0 0 170.2 224;" xml:space="preserve">
<path d="M78.63,0c8.28,0,16.55,0,24.83,0c2.97,0.46,5.95,0.87,8.91,1.39c24.72,4.34,42.04,17.54,50.01,41.89
	c4.48,13.69,6.18,27.85,6.95,42.15c0.33,6.01,0.57,12.02,0.85,18.03c0,10,0,20,0,30c-0.11,0.76-0.28,1.52-0.31,2.29
	c-0.4,9.31-1.59,18.51-3.72,27.58c-5.05,21.51-16.95,37.56-37.34,46.89c-12.94,5.92-26.59,9.44-40.53,11.83
	c-6.09,1.04-12.3,1.32-18.46,1.94c-3.1,0-6.21,0-9.31,0c-1.76-0.58-3.58-0.25-5.38-0.35c-12.75-0.71-24.63-3.98-33.44-13.79
	C11.66,198.65,2.91,186.54,0,171.23c0-5.69,0-11.38,0-17.07c0.45-4.01,0.92-8.02,1.36-12.04c1.27-11.4,0.66-22.87,1.54-34.29
	c1.02-13.18,3.2-26.12,7.39-38.68c5.47-16.43,14.4-31.06,24-45.26C41.47,13.26,51.55,6.27,63.93,2.67C68.75,1.27,73.72,0.83,78.63,0
	z"/>
</svg>
