<svg id="圖層_1" data-name="圖層 1" xmlns="http://www.w3.org/2000/svg" viewBox="0 0 176.3 227.58"><path d="M0,173.48a153.14,153.14,0,0,1,14.42-59.23C20,102.32,23.11,90,25.35,77.16c2.43-13.87,5-27.73,11-40.63C42.53,23.37,51.68,13.42,66.07,9.27A62,62,0,0,1,86.54,7.11c1.42.08,2.32.12,1.81-1.84-.44-1.69,1-2.57,2.29-3.24a21.86,21.86,0,0,1,10.2-2c17.61.14,33.06,5.79,45.76,18.26A52.24,52.24,0,0,1,155,29.65a4.38,4.38,0,0,1,.63,2.93A21.36,21.36,0,0,0,157,43.5c6.19,15.37,7,31.24,4.14,47.32-1.37,7.66-.38,14.9,1.61,22.22,3.81,14,8.76,27.63,11.72,41.84,1.52,7.27,2.69,14.59,1,22-.32,1.38-.63,3.1-1.59,3.94-3.63,3.17-4.32,7.27-5.23,11.73-1.34,6.6-7,9-13,10.26a30.6,30.6,0,0,1-12.83-.59,23,23,0,0,0-16.6,2.31c-13.52,7.21-27.86,12.64-42.39,17.52a122.14,122.14,0,0,1-20.31,5.07c-9.55,1.48-17.75-.47-23.89-8.53a29.44,29.44,0,0,0-19.53-11.85c-10.13-1.55-15.59-8-18.24-17.37A56.31,56.31,0,0,1,0,173.48Z"/></svg>